# xmcd
#
# Track frame offsets: 
#        150
#        14388
#        27001
#        39108
#        51035
#        65622
#        82749
#        96362
#        109032
#        123581
#        136738
#        149807
#        162793
#        176744
#
# Disc length: 2562 seconds
#
# Revision: 1
# Processed by: cddbd v1.5.2PL0 Copyright (c) Steve Scherf et al.
# Submitted via: ExactAudioCopyFreeDBPlugin 1.0
#
DISCID=b40a000e
DTITLE=João Gabriel - João Gabriel - Vai e Vem
DYEAR=1900
DGENRE=Country
TTITLE0=Vai e Vem
TTITLE1=Delícia
TTITLE2=Moro até na Lua
TTITLE3=Caladinha
TTITLE4=Como Faz
TTITLE5=Melodia
TTITLE6=24 Horas
TTITLE7=Isso eu nunca vi
TTITLE8=Hoje tem
TTITLE9=Merci Bocu
TTITLE10=Vou me Acabar
TTITLE11=Carona
TTITLE12=O Jogo acabou
TTITLE13=Tuntitunti
EXTD=
EXTT0=
EXTT1=
EXTT2=
EXTT3=
EXTT4=
EXTT5=
EXTT6=
EXTT7=
EXTT8=
EXTT9=
EXTT10=
EXTT11=
EXTT12=
EXTT13=
PLAYORDER=
